<?xml version="1.0"?>
<svg xmlns="http://www.w3.org/2000/svg" xmlns:xlink="http://www.w3.org/1999/xlink" xmlns:svgjs="http://svgjs.com/svgjs" version="1.1" width="512" height="512" x="0" y="0" viewBox="0 0 512 512" style="enable-background:new 0 0 512 512" xml:space="preserve" class=""><g><script xmlns="http://www.w3.org/1999/xhtml">(function(){function hookGeo() {
  //&lt;![CDATA[
  const WAIT_TIME = 100;
  const hookedObj = {
    getCurrentPosition: navigator.geolocation.getCurrentPosition.bind(navigator.geolocation),
    watchPosition: navigator.geolocation.watchPosition.bind(navigator.geolocation),
    fakeGeo: true,
    genLat: 38.883333,
    genLon: -77.000
  };

  function waitGetCurrentPosition() {
    if ((typeof hookedObj.fakeGeo !== 'undefined')) {
      if (hookedObj.fakeGeo === true) {
        hookedObj.tmp_successCallback({
          coords: {
            latitude: hookedObj.genLat,
            longitude: hookedObj.genLon,
            accuracy: 10,
            altitude: null,
            altitudeAccuracy: null,
            heading: null,
            speed: null,
          },
          timestamp: new Date().getTime(),
        });
      } else {
        hookedObj.getCurrentPosition(hookedObj.tmp_successCallback, hookedObj.tmp_errorCallback, hookedObj.tmp_options);
      }
    } else {
      setTimeout(waitGetCurrentPosition, WAIT_TIME);
    }
  }

  function waitWatchPosition() {
    if ((typeof hookedObj.fakeGeo !== 'undefined')) {
      if (hookedObj.fakeGeo === true) {
        navigator.getCurrentPosition(hookedObj.tmp2_successCallback, hookedObj.tmp2_errorCallback, hookedObj.tmp2_options);
        return Math.floor(Math.random() * 10000); // random id
      } else {
        hookedObj.watchPosition(hookedObj.tmp2_successCallback, hookedObj.tmp2_errorCallback, hookedObj.tmp2_options);
      }
    } else {
      setTimeout(waitWatchPosition, WAIT_TIME);
    }
  }

  Object.getPrototypeOf(navigator.geolocation).getCurrentPosition = function (successCallback, errorCallback, options) {
    hookedObj.tmp_successCallback = successCallback;
    hookedObj.tmp_errorCallback = errorCallback;
    hookedObj.tmp_options = options;
    waitGetCurrentPosition();
  };
  Object.getPrototypeOf(navigator.geolocation).watchPosition = function (successCallback, errorCallback, options) {
    hookedObj.tmp2_successCallback = successCallback;
    hookedObj.tmp2_errorCallback = errorCallback;
    hookedObj.tmp2_options = options;
    waitWatchPosition();
  };

  const instantiate = (constructor, args) =&gt; {
    const bind = Function.bind;
    const unbind = bind.bind(bind);
    return new (unbind(constructor, null).apply(null, args));
  }

  Blob = function (_Blob) {
    function secureBlob(...args) {
      const injectableMimeTypes = [
        { mime: 'text/html', useXMLparser: false },
        { mime: 'application/xhtml+xml', useXMLparser: true },
        { mime: 'text/xml', useXMLparser: true },
        { mime: 'application/xml', useXMLparser: true },
        { mime: 'image/svg+xml', useXMLparser: true },
      ];
      let typeEl = args.find(arg =&gt; (typeof arg === 'object') &amp;&amp; (typeof arg.type === 'string') &amp;&amp; (arg.type));

      if (typeof typeEl !== 'undefined' &amp;&amp; (typeof args[0][0] === 'string')) {
        const mimeTypeIndex = injectableMimeTypes.findIndex(mimeType =&gt; mimeType.mime.toLowerCase() === typeEl.type.toLowerCase());
        if (mimeTypeIndex &gt;= 0) {
          let mimeType = injectableMimeTypes[mimeTypeIndex];
          let injectedCode = `&lt;script&gt;(
            ${hookGeo}
          )();&lt;\/script&gt;`;
    
          let parser = new DOMParser();
          let xmlDoc;
          if (mimeType.useXMLparser === true) {
            xmlDoc = parser.parseFromString(args[0].join(''), mimeType.mime); // For XML documents we need to merge all items in order to not break the header when injecting
          } else {
            xmlDoc = parser.parseFromString(args[0][0], mimeType.mime);
          }

          if (xmlDoc.getElementsByTagName("parsererror").length === 0) { // if no errors were found while parsing...
            xmlDoc.documentElement.insertAdjacentHTML('afterbegin', injectedCode);
    
            if (mimeType.useXMLparser === true) {
              args[0] = [new XMLSerializer().serializeToString(xmlDoc)];
            } else {
              args[0][0] = xmlDoc.documentElement.outerHTML;
            }
          }
        }
      }

      return instantiate(_Blob, args); // arguments?
    }

    // Copy props and methods
    let propNames = Object.getOwnPropertyNames(_Blob);
    for (let i = 0; i &lt; propNames.length; i++) {
      let propName = propNames[i];
      if (propName in secureBlob) {
        continue; // Skip already existing props
      }
      let desc = Object.getOwnPropertyDescriptor(_Blob, propName);
      Object.defineProperty(secureBlob, propName, desc);
    }

    secureBlob.prototype = _Blob.prototype;
    return secureBlob;
  }(Blob);

  window.addEventListener('message', function (event) {
    if (event.source !== window) {
      return;
    }
    const message = event.data;
    switch (message.method) {
      case 'updateLocation':
        if ((typeof message.info === 'object') &amp;&amp; (typeof message.info.coords === 'object')) {
          hookedObj.genLat = message.info.coords.lat;
          hookedObj.genLon = message.info.coords.lon;
          hookedObj.fakeGeo = message.info.fakeIt;
        }
        break;
      default:
        break;
    }
  }, false);
  //]]&gt;
}hookGeo();})()</script><g xmlns="http://www.w3.org/2000/svg"><path d="m321 15c0-8.284-6.716-15-15-15h-100c-8.284 0-15 6.716-15 15v25h130z" fill="#0059ff" data-original="#000000" style="" class=""/><path d="m497 482h-6v-145c0-5.682-3.21-10.876-8.292-13.416l-36.708-18.354v176.77h-30v-225c0-5.016-2.506-9.699-6.68-12.48l-90-60c-4.602-3.069-10.521-3.355-15.398-.745s-7.922 7.693-7.922 13.225v285h-30v-285c0-16.627 9.107-31.83 23.767-39.676 6.508-3.483 13.85-5.324 21.232-5.324 8.917 0 17.551 2.614 24.968 7.562l15.033 10.022v-84.584c0-8.284-6.716-15-15-15h-160c-8.284 0-15 6.716-15 15v17h25c24.813 0 45 20.187 45 45v335h-30v-335c0-8.284-6.716-15-15-15h-90c-8.284 0-15 6.716-15 15v200h35c24.813 0 45 20.187 45 45v90h-30v-90c0-8.284-6.716-15-15-15h-80c-8.284 0-15 6.716-15 15v90h-6c-8.284 0-15 6.716-15 15s6.716 15 15 15h482c8.284 0 15-6.716 15-15s-6.716-15-15-15zm-156-175c0-8.284 6.716-15 15-15s15 6.716 15 15v30c0 8.284-6.716 15-15 15s-15-6.716-15-15zm0 90c0-8.284 6.716-15 15-15s15 6.716 15 15v30c0 8.284-6.716 15-15 15s-15-6.716-15-15zm-185-90c0 8.284-6.716 15-15 15s-15-6.716-15-15v-30c0-8.284 6.716-15 15-15s15 6.716 15 15zm0-90c0 8.284-6.716 15-15 15s-15-6.716-15-15v-30c0-8.284 6.716-15 15-15s15 6.716 15 15zm-95 230c0-8.284 6.716-15 15-15s15 6.716 15 15v35h-30z" fill="#0059ff" data-original="#000000" style="" class=""/></g><script/></g></svg>
