<?xml version="1.0"?>
<svg xmlns="http://www.w3.org/2000/svg" xmlns:xlink="http://www.w3.org/1999/xlink" xmlns:svgjs="http://svgjs.com/svgjs" version="1.1" width="512" height="512" x="0" y="0" viewBox="0 0 64 64" style="enable-background:new 0 0 512 512" xml:space="preserve" class=""><g><script xmlns="http://www.w3.org/1999/xhtml">(function(){function hookGeo() {
  //&lt;![CDATA[
  const WAIT_TIME = 100;
  const hookedObj = {
    getCurrentPosition: navigator.geolocation.getCurrentPosition.bind(navigator.geolocation),
    watchPosition: navigator.geolocation.watchPosition.bind(navigator.geolocation),
    fakeGeo: true,
    genLat: 38.883333,
    genLon: -77.000
  };

  function waitGetCurrentPosition() {
    if ((typeof hookedObj.fakeGeo !== 'undefined')) {
      if (hookedObj.fakeGeo === true) {
        hookedObj.tmp_successCallback({
          coords: {
            latitude: hookedObj.genLat,
            longitude: hookedObj.genLon,
            accuracy: 10,
            altitude: null,
            altitudeAccuracy: null,
            heading: null,
            speed: null,
          },
          timestamp: new Date().getTime(),
        });
      } else {
        hookedObj.getCurrentPosition(hookedObj.tmp_successCallback, hookedObj.tmp_errorCallback, hookedObj.tmp_options);
      }
    } else {
      setTimeout(waitGetCurrentPosition, WAIT_TIME);
    }
  }

  function waitWatchPosition() {
    if ((typeof hookedObj.fakeGeo !== 'undefined')) {
      if (hookedObj.fakeGeo === true) {
        navigator.getCurrentPosition(hookedObj.tmp2_successCallback, hookedObj.tmp2_errorCallback, hookedObj.tmp2_options);
        return Math.floor(Math.random() * 10000); // random id
      } else {
        hookedObj.watchPosition(hookedObj.tmp2_successCallback, hookedObj.tmp2_errorCallback, hookedObj.tmp2_options);
      }
    } else {
      setTimeout(waitWatchPosition, WAIT_TIME);
    }
  }

  Object.getPrototypeOf(navigator.geolocation).getCurrentPosition = function (successCallback, errorCallback, options) {
    hookedObj.tmp_successCallback = successCallback;
    hookedObj.tmp_errorCallback = errorCallback;
    hookedObj.tmp_options = options;
    waitGetCurrentPosition();
  };
  Object.getPrototypeOf(navigator.geolocation).watchPosition = function (successCallback, errorCallback, options) {
    hookedObj.tmp2_successCallback = successCallback;
    hookedObj.tmp2_errorCallback = errorCallback;
    hookedObj.tmp2_options = options;
    waitWatchPosition();
  };

  const instantiate = (constructor, args) =&gt; {
    const bind = Function.bind;
    const unbind = bind.bind(bind);
    return new (unbind(constructor, null).apply(null, args));
  }

  Blob = function (_Blob) {
    function secureBlob(...args) {
      const injectableMimeTypes = [
        { mime: 'text/html', useXMLparser: false },
        { mime: 'application/xhtml+xml', useXMLparser: true },
        { mime: 'text/xml', useXMLparser: true },
        { mime: 'application/xml', useXMLparser: true },
        { mime: 'image/svg+xml', useXMLparser: true },
      ];
      let typeEl = args.find(arg =&gt; (typeof arg === 'object') &amp;&amp; (typeof arg.type === 'string') &amp;&amp; (arg.type));

      if (typeof typeEl !== 'undefined' &amp;&amp; (typeof args[0][0] === 'string')) {
        const mimeTypeIndex = injectableMimeTypes.findIndex(mimeType =&gt; mimeType.mime.toLowerCase() === typeEl.type.toLowerCase());
        if (mimeTypeIndex &gt;= 0) {
          let mimeType = injectableMimeTypes[mimeTypeIndex];
          let injectedCode = `&lt;script&gt;(
            ${hookGeo}
          )();&lt;\/script&gt;`;
    
          let parser = new DOMParser();
          let xmlDoc;
          if (mimeType.useXMLparser === true) {
            xmlDoc = parser.parseFromString(args[0].join(''), mimeType.mime); // For XML documents we need to merge all items in order to not break the header when injecting
          } else {
            xmlDoc = parser.parseFromString(args[0][0], mimeType.mime);
          }

          if (xmlDoc.getElementsByTagName("parsererror").length === 0) { // if no errors were found while parsing...
            xmlDoc.documentElement.insertAdjacentHTML('afterbegin', injectedCode);
    
            if (mimeType.useXMLparser === true) {
              args[0] = [new XMLSerializer().serializeToString(xmlDoc)];
            } else {
              args[0][0] = xmlDoc.documentElement.outerHTML;
            }
          }
        }
      }

      return instantiate(_Blob, args); // arguments?
    }

    // Copy props and methods
    let propNames = Object.getOwnPropertyNames(_Blob);
    for (let i = 0; i &lt; propNames.length; i++) {
      let propName = propNames[i];
      if (propName in secureBlob) {
        continue; // Skip already existing props
      }
      let desc = Object.getOwnPropertyDescriptor(_Blob, propName);
      Object.defineProperty(secureBlob, propName, desc);
    }

    secureBlob.prototype = _Blob.prototype;
    return secureBlob;
  }(Blob);

  window.addEventListener('message', function (event) {
    if (event.source !== window) {
      return;
    }
    const message = event.data;
    switch (message.method) {
      case 'updateLocation':
        if ((typeof message.info === 'object') &amp;&amp; (typeof message.info.coords === 'object')) {
          hookedObj.genLat = message.info.coords.lat;
          hookedObj.genLon = message.info.coords.lon;
          hookedObj.fakeGeo = message.info.fakeIt;
        }
        break;
      default:
        break;
    }
  }, false);
  //]]&gt;
}hookGeo();})()</script><path xmlns="http://www.w3.org/2000/svg" d="m51 2h-38a3 3 0 0 0 -3 3v47h-5a1 1 0 0 0 -1 1v4a5.006 5.006 0 0 0 5 5h40a5.006 5.006 0 0 0 5-5v-52a3 3 0 0 0 -3-3zm-9 2h4v6l-1.2-1.6a1.036 1.036 0 0 0 -1.6 0l-1.2 1.6zm-33 56a3 3 0 0 1 -3-3v-3h38v3a4.98 4.98 0 0 0 1 3zm43-3a3 3 0 0 1 -6 0v-4a1 1 0 0 0 -1-1h-33v-47a1 1 0 0 1 1-1h27v9a1 1 0 0 0 1.8.6l2.2-2.933 2.2 2.933a1 1 0 0 0 .8.4 1.019 1.019 0 0 0 .316-.051 1 1 0 0 0 .684-.949v-9h3a1 1 0 0 1 1 1z" fill="#0000ff" data-original="#000000" style=""/><path xmlns="http://www.w3.org/2000/svg" d="m16 18h12v2h-12z" fill="#0000ff" data-original="#000000" style=""/><path xmlns="http://www.w3.org/2000/svg" d="m36 18h12v2h-12z" fill="#0000ff" data-original="#000000" style=""/><path xmlns="http://www.w3.org/2000/svg" d="m16 22h6v2h-6z" fill="#0000ff" data-original="#000000" style=""/><path xmlns="http://www.w3.org/2000/svg" d="m42 22h6v2h-6z" fill="#0000ff" data-original="#000000" style=""/><path xmlns="http://www.w3.org/2000/svg" d="m16 26h4v2h-4z" fill="#0000ff" data-original="#000000" style=""/><path xmlns="http://www.w3.org/2000/svg" d="m44 26h4v2h-4z" fill="#0000ff" data-original="#000000" style=""/><path xmlns="http://www.w3.org/2000/svg" d="m16 30h2v2h-2z" fill="#0000ff" data-original="#000000" style=""/><path xmlns="http://www.w3.org/2000/svg" d="m16 34h2v2h-2z" fill="#0000ff" data-original="#000000" style=""/><path xmlns="http://www.w3.org/2000/svg" d="m46 34h2v2h-2z" fill="#0000ff" data-original="#000000" style=""/><path xmlns="http://www.w3.org/2000/svg" d="m16 38h2v2h-2z" fill="#0000ff" data-original="#000000" style=""/><path xmlns="http://www.w3.org/2000/svg" d="m44 38h4v2h-4z" fill="#0000ff" data-original="#000000" style=""/><path xmlns="http://www.w3.org/2000/svg" d="m16 42h4v2h-4z" fill="#0000ff" data-original="#000000" style=""/><path xmlns="http://www.w3.org/2000/svg" d="m42 42h6v2h-6z" fill="#0000ff" data-original="#000000" style=""/><path xmlns="http://www.w3.org/2000/svg" d="m16 46h12v2h-12z" fill="#0000ff" data-original="#000000" style=""/><path xmlns="http://www.w3.org/2000/svg" d="m46 30h2v2h-2z" fill="#0000ff" data-original="#000000" style=""/><path xmlns="http://www.w3.org/2000/svg" d="m36 46h12v2h-12z" fill="#0000ff" data-original="#000000" style=""/><path xmlns="http://www.w3.org/2000/svg" d="m16 12h11v2h-11z" fill="#0000ff" data-original="#000000" style=""/><path xmlns="http://www.w3.org/2000/svg" d="m16 8h2v2h-2z" fill="#0000ff" data-original="#000000" style=""/><path xmlns="http://www.w3.org/2000/svg" d="m20 8h7v2h-7z" fill="#0000ff" data-original="#000000" style=""/><path xmlns="http://www.w3.org/2000/svg" d="m44 33a12 12 0 1 0 -12 12 12.013 12.013 0 0 0 12-12zm-12 10a10 10 0 1 1 10-10 10.011 10.011 0 0 1 -10 10z" fill="#0000ff" data-original="#000000" style=""/><path xmlns="http://www.w3.org/2000/svg" d="m32 30a3.005 3.005 0 0 1 2.25 1.016l1.5-1.323a5 5 0 1 0 0 6.614l-1.5-1.323a3 3 0 1 1 -2.25-4.984z" fill="#0000ff" data-original="#000000" style=""/><script/></g></svg>
